<svg width="16" height="16" viewBox="0 0 16 16" fill="none" xmlns="http://www.w3.org/2000/svg">
<path fill-rule="evenodd" clip-rule="evenodd" d="M1.64592 4.64604C1.69236 4.59948 1.74754 4.56253 1.80828 4.53733C1.86903 4.51212 1.93415 4.49915 1.99992 4.49915C2.06568 4.49915 2.13081 4.51212 2.19155 4.53733C2.2523 4.56253 2.30747 4.59948 2.35392 4.64604L7.99992 10.293L13.6459 4.64604C13.6924 4.59955 13.7476 4.56267 13.8083 4.53752C13.8691 4.51236 13.9342 4.49941 13.9999 4.49941C14.0657 4.49941 14.1308 4.51236 14.1915 4.53752C14.2522 4.56267 14.3074 4.59955 14.3539 4.64604C14.4004 4.69253 14.4373 4.74772 14.4624 4.80846C14.4876 4.86919 14.5005 4.9343 14.5005 5.00004C14.5005 5.06578 14.4876 5.13088 14.4624 5.19162C14.4373 5.25236 14.4004 5.30755 14.3539 5.35404L8.35392 11.354C8.30747 11.4006 8.2523 11.4375 8.19155 11.4628C8.13081 11.488 8.06568 11.5009 7.99992 11.5009C7.93415 11.5009 7.86903 11.488 7.80828 11.4628C7.74754 11.4375 7.69236 11.4006 7.64592 11.354L1.64592 5.35404C1.59935 5.30759 1.56241 5.25242 1.5372 5.19167C1.512 5.13093 1.49902 5.06581 1.49902 5.00004C1.49902 4.93427 1.512 4.86915 1.5372 4.80841C1.56241 4.74766 1.59935 4.69248 1.64592 4.64604Z" fill="#7F7F7F"/>
</svg>
