<svg width="16" height="16" viewBox="0 0 16 16" fill="none" xmlns="http://www.w3.org/2000/svg">
<path fill-rule="evenodd" clip-rule="evenodd" d="M1.64604 11.354C1.69249 11.4005 1.74766 11.4375 1.80841 11.4627C1.86915 11.4879 1.93427 11.5009 2.00004 11.5009C2.06581 11.5009 2.13093 11.4879 2.19167 11.4627C2.25242 11.4375 2.30759 11.4005 2.35404 11.354L8.00004 5.70696L13.646 11.354C13.6925 11.4004 13.7477 11.4373 13.8085 11.4625C13.8692 11.4876 13.9343 11.5006 14 11.5006C14.0658 11.5006 14.1309 11.4876 14.1916 11.4625C14.2524 11.4373 14.3076 11.4004 14.354 11.354C14.4005 11.3075 14.4374 11.2523 14.4626 11.1915C14.4877 11.1308 14.5007 11.0657 14.5007 11C14.5007 10.9342 14.4877 10.8691 14.4626 10.8084C14.4374 10.7476 14.4005 10.6924 14.354 10.646L8.35404 4.64596C8.30759 4.5994 8.25242 4.56246 8.19167 4.53725C8.13093 4.51204 8.06581 4.49907 8.00004 4.49907C7.93427 4.49907 7.86915 4.51204 7.80841 4.53725C7.74766 4.56246 7.69248 4.5994 7.64604 4.64596L1.64604 10.646C1.59948 10.6924 1.56253 10.7476 1.53733 10.8083C1.51212 10.8691 1.49915 10.9342 1.49915 11C1.49915 11.0657 1.51212 11.1308 1.53733 11.1916C1.56253 11.2523 1.59948 11.3075 1.64604 11.354Z" fill="#7F7F7F"/>
</svg>
