<svg width="24" height="24" viewBox="0 0 24 24" fill="none" xmlns="http://www.w3.org/2000/svg">
<path d="M17.359 15.5915C19.06 14.0735 20 12.3535 20 12.3535C20 12.3535 17 6.85352 12 6.85352C11.0396 6.85682 10.09 7.05694 9.20996 7.44152L9.97996 8.21252C10.6274 7.97667 11.3109 7.85519 12 7.85352C14.12 7.85352 15.879 9.02152 17.168 10.3105C17.7883 10.9342 18.3444 11.6186 18.828 12.3535C18.77 12.4405 18.706 12.5365 18.633 12.6415C18.298 13.1215 17.803 13.7615 17.168 14.3965C17.003 14.5615 16.831 14.7245 16.651 14.8825L17.359 15.5915Z" fill="#7F7F7F"/>
<path d="M15.297 13.5299C15.5201 12.9057 15.5615 12.231 15.4162 11.5843C15.2708 10.9376 14.9449 10.3454 14.4762 9.87669C14.0075 9.40798 13.4153 9.08201 12.7686 8.9367C12.1218 8.79139 11.4471 8.83272 10.823 9.05587L11.646 9.87887C12.0303 9.82386 12.4221 9.85911 12.7905 9.98183C13.1588 10.1046 13.4935 10.3114 13.768 10.5859C14.0425 10.8604 14.2493 11.1951 14.372 11.5634C14.4947 11.9317 14.53 12.3236 14.475 12.7079L15.297 13.5299ZM12.354 14.8289L13.176 15.6509C12.5518 15.874 11.8771 15.9154 11.2304 15.77C10.5837 15.6247 9.99151 15.2988 9.52281 14.8301C9.0541 14.3613 8.72813 13.7692 8.58282 13.1224C8.43751 12.4757 8.47883 11.801 8.70199 11.1769L9.52499 11.9999C9.46998 12.3842 9.50523 12.776 9.62795 13.1443C9.75067 13.5127 9.95748 13.8473 10.232 14.1219C10.5065 14.3964 10.8412 14.6032 11.2095 14.7259C11.5778 14.8486 11.9697 14.8839 12.354 14.8289Z" fill="#7F7F7F"/>
<path d="M7.35 9.824C7.17 9.984 6.997 10.146 6.832 10.311C6.21165 10.9347 5.65552 11.6191 5.172 12.354L5.367 12.642C5.702 13.122 6.197 13.762 6.832 14.397C8.121 15.686 9.881 16.854 12 16.854C12.716 16.854 13.39 16.721 14.02 16.494L14.79 17.266C13.9099 17.6505 12.9604 17.8507 12 17.854C7 17.854 4 12.354 4 12.354C4 12.354 4.939 10.633 6.641 9.116L7.349 9.825L7.35 9.824ZM17.646 18.708L5.646 6.708L6.354 6L18.354 18L17.646 18.708Z" fill="#7F7F7F"/>
</svg>
