<svg width="32" height="32" viewBox="0 0 32 32" fill="none" xmlns="http://www.w3.org/2000/svg">
<path d="M11.3893 26.0214H20.6203C22.1672 26.0214 23.1616 25.0873 23.242 23.5404L23.915 9.0761H25.0199C25.5322 9.0761 25.9239 8.67432 25.9239 8.17208C25.9239 7.66985 25.5221 7.28816 25.0199 7.28816H20.5601V5.78146C20.5601 4.23458 19.5757 3.33057 17.8982 3.33057H14.0813C12.4038 3.33057 11.4194 4.23458 11.4194 5.78146V7.28816H6.9797C6.47747 7.28816 6.07568 7.6799 6.07568 8.17208C6.07568 8.68436 6.47747 9.0761 6.9797 9.0761H8.08461L8.7576 23.5404C8.83796 25.0973 9.82234 26.0214 11.3893 26.0214ZM13.2978 5.87186C13.2978 5.35958 13.6594 5.02811 14.2118 5.02811H17.7676C18.3201 5.02811 18.6817 5.35958 18.6817 5.87186V7.28816H13.2978V5.87186ZM11.5902 24.2234C11.0377 24.2234 10.636 23.8116 10.6058 23.219L9.93283 9.0761H22.0366L21.3837 23.219C21.3636 23.8216 20.9719 24.2234 20.3993 24.2234H11.5902ZM13.0366 22.6062C13.4685 22.6062 13.7397 22.335 13.7297 21.9332L13.4284 11.4265C13.4183 11.0248 13.1371 10.7636 12.7252 10.7636C12.3034 10.7636 12.0322 11.0348 12.0422 11.4366L12.3435 21.9433C12.3536 22.3451 12.6348 22.6062 13.0366 22.6062ZM15.9998 22.6062C16.4217 22.6062 16.713 22.3451 16.713 21.9433V11.4366C16.713 11.0348 16.4217 10.7636 15.9998 10.7636C15.5779 10.7636 15.2967 11.0348 15.2967 11.4366V21.9433C15.2967 22.3451 15.5779 22.6062 15.9998 22.6062ZM18.963 22.6163C19.3647 22.6163 19.646 22.3451 19.656 21.9433L19.9574 11.4366C19.9674 11.0348 19.6962 10.7736 19.2743 10.7736C18.8625 10.7736 18.5813 11.0348 18.5712 11.4366L18.2699 21.9433C18.2598 22.335 18.531 22.6163 18.963 22.6163Z" fill="white"/>
</svg>
