<svg width="16" height="16" viewBox="0 0 16 16" fill="none" xmlns="http://www.w3.org/2000/svg">
<path d="M8.50014 6.5C8.50014 6.36739 8.44747 6.24021 8.3537 6.14645C8.25993 6.05268 8.13275 6 8.00014 6C7.86754 6 7.74036 6.05268 7.64659 6.14645C7.55282 6.24021 7.50014 6.36739 7.50014 6.5V10.293L6.35414 9.146C6.30766 9.09951 6.25247 9.06264 6.19173 9.03748C6.13099 9.01232 6.06589 8.99937 6.00014 8.99937C5.9344 8.99937 5.8693 9.01232 5.80856 9.03748C5.74782 9.06264 5.69263 9.09951 5.64614 9.146C5.59966 9.19249 5.56278 9.24768 5.53762 9.30842C5.51246 9.36916 5.49951 9.43426 5.49951 9.5C5.49951 9.56574 5.51246 9.63084 5.53762 9.69158C5.56278 9.75232 5.59966 9.80751 5.64614 9.854L7.64614 11.854C7.69259 11.9006 7.74776 11.9375 7.80851 11.9627C7.86926 11.9879 7.93438 12.0009 8.00014 12.0009C8.06591 12.0009 8.13103 11.9879 8.19178 11.9627C8.25252 11.9375 8.3077 11.9006 8.35414 11.854L10.3541 9.854C10.4006 9.80751 10.4375 9.75232 10.4627 9.69158C10.4878 9.63084 10.5008 9.56574 10.5008 9.5C10.5008 9.43426 10.4878 9.36916 10.4627 9.30842C10.4375 9.24768 10.4006 9.19249 10.3541 9.146C10.3077 9.09951 10.2525 9.06264 10.1917 9.03748C10.131 9.01232 10.0659 8.99937 10.0001 8.99937C9.9344 8.99937 9.8693 9.01232 9.80856 9.03748C9.74782 9.06264 9.69263 9.09951 9.64614 9.146L8.50014 10.293V6.5Z" fill="white"/>
<path d="M14 14V4.5L9.5 0H4C3.46957 0 2.96086 0.210714 2.58579 0.585786C2.21071 0.960859 2 1.46957 2 2V14C2 14.5304 2.21071 15.0391 2.58579 15.4142C2.96086 15.7893 3.46957 16 4 16H12C12.5304 16 13.0391 15.7893 13.4142 15.4142C13.7893 15.0391 14 14.5304 14 14ZM9.5 3C9.5 3.39782 9.65804 3.77936 9.93934 4.06066C10.2206 4.34196 10.6022 4.5 11 4.5H13V14C13 14.2652 12.8946 14.5196 12.7071 14.7071C12.5196 14.8946 12.2652 15 12 15H4C3.73478 15 3.48043 14.8946 3.29289 14.7071C3.10536 14.5196 3 14.2652 3 14V2C3 1.73478 3.10536 1.48043 3.29289 1.29289C3.48043 1.10536 3.73478 1 4 1H9.5V3Z" fill="white"/>
</svg>
