<svg width="30" height="30" viewBox="0 0 30 30" fill="none" xmlns="http://www.w3.org/2000/svg">
<rect x="0.5" y="0.5" width="29" height="29" rx="14.5" fill="white" stroke="#E74C3C"/>
<path d="M17.5714 9.3125V10.1875H20.5714C20.6851 10.1875 20.7941 10.2336 20.8745 10.3156C20.9548 10.3977 21 10.509 21 10.625C21 10.741 20.9548 10.8523 20.8745 10.9344C20.7941 11.0164 20.6851 11.0625 20.5714 11.0625H20.1103L19.3791 20.39C19.3447 20.8285 19.1496 21.2377 18.8329 21.5361C18.5162 21.8345 18.101 22.0001 17.67 22H12.33C11.899 22.0001 11.4838 21.8345 11.1671 21.5361C10.8504 21.2377 10.6553 20.8285 10.6209 20.39L9.88971 11.0625H9.42857C9.31491 11.0625 9.2059 11.0164 9.12553 10.9344C9.04515 10.8523 9 10.741 9 10.625C9 10.509 9.04515 10.3977 9.12553 10.3156C9.2059 10.2336 9.31491 10.1875 9.42857 10.1875H12.4286V9.3125C12.4286 8.9644 12.564 8.63056 12.8051 8.38442C13.0463 8.13828 13.3733 8 13.7143 8H16.2857C16.6267 8 16.9537 8.13828 17.1949 8.38442C17.436 8.63056 17.5714 8.9644 17.5714 9.3125ZM13.2857 9.3125V10.1875H16.7143V9.3125C16.7143 9.19647 16.6691 9.08519 16.5888 9.00314C16.5084 8.92109 16.3994 8.875 16.2857 8.875H13.7143C13.6006 8.875 13.4916 8.92109 13.4112 9.00314C13.3309 9.08519 13.2857 9.19647 13.2857 9.3125ZM12 12.4004L12.4286 19.8379C12.4309 19.896 12.4445 19.9531 12.4686 20.0058C12.4928 20.0585 12.527 20.1057 12.5693 20.1448C12.6116 20.1838 12.6611 20.2138 12.7148 20.2331C12.7686 20.2524 12.8256 20.2605 12.8825 20.257C12.9394 20.2535 12.9951 20.2385 13.0462 20.2128C13.0973 20.1871 13.1429 20.1512 13.1803 20.1073C13.2177 20.0634 13.2461 20.0123 13.2639 19.957C13.2817 19.9017 13.2886 19.8434 13.284 19.7854L12.8554 12.3479C12.8531 12.2897 12.8395 12.2326 12.8153 12.1799C12.7912 12.1273 12.757 12.08 12.7147 12.041C12.6724 12.0019 12.6229 11.9719 12.5692 11.9526C12.5154 11.9334 12.4584 11.9252 12.4015 11.9287C12.3446 11.9322 12.2889 11.9473 12.2378 11.973C12.1867 11.9987 12.1411 12.0345 12.1037 12.0785C12.0663 12.1224 12.0379 12.1735 12.0201 12.2288C12.0023 12.284 11.9954 12.3424 12 12.4004ZM17.5971 11.9384C17.4837 11.9317 17.3723 11.9712 17.2875 12.0484C17.2026 12.1255 17.1512 12.2338 17.1446 12.3496L16.716 19.7871C16.7123 19.9012 16.7525 20.0122 16.8278 20.0965C16.9032 20.1808 17.0079 20.2317 17.1195 20.2383C17.2311 20.2449 17.3408 20.2067 17.4252 20.1319C17.5097 20.0571 17.5621 19.9516 17.5714 19.8379L18 12.4004C18.0066 12.2846 17.9678 12.1709 17.8923 12.0842C17.8167 11.9976 17.7106 11.9451 17.5971 11.9384ZM15 11.9375C14.8863 11.9375 14.7773 11.9836 14.697 12.0656C14.6166 12.1477 14.5714 12.259 14.5714 12.375V19.8125C14.5714 19.9285 14.6166 20.0398 14.697 20.1219C14.7773 20.2039 14.8863 20.25 15 20.25C15.1137 20.25 15.2227 20.2039 15.303 20.1219C15.3834 20.0398 15.4286 19.9285 15.4286 19.8125V12.375C15.4286 12.259 15.3834 12.1477 15.303 12.0656C15.2227 11.9836 15.1137 11.9375 15 11.9375Z" fill="#E74C3C"/>
</svg>
